<?xml version="1.0" encoding="utf-8"?>
<!-- Generator: Adobe Illustrator 16.0.0, SVG Export Plug-In . SVG Version: 6.00 Build 0)  -->
<!DOCTYPE svg PUBLIC "-//W3C//DTD SVG 1.1//EN" "http://www.w3.org/Graphics/SVG/1.1/DTD/svg11.dtd">
<svg version="1.1" id="Layer_1" xmlns="http://www.w3.org/2000/svg" xmlns:xlink="http://www.w3.org/1999/xlink" x="0px" y="0px"
	 width="792px" height="353px" viewBox="0 0 792 353" enable-background="new 0 0 792 353" xml:space="preserve">
<path fill="#4D4765" d="M751.355,314.922H42.938V36.872h708.417v58.446c0,0-30.532,35.139-30.532,86.147
	c0,44.362,30.532,76.987,30.532,76.987V314.922z"/>
<rect x="9.295" y="9.066" fill="none" stroke="#4D4765" stroke-width="3" stroke-miterlimit="10" width="775.705" height="333.658"/>
<g>
	<path fill="#FFFFFF" d="M109.628,120.498c0.508-1.471,1.349-1.471,1.865,0l3.936,11.342c0.514,1.476,2.205,2.701,3.772,2.739
		l12.001,0.244c1.557,0.031,1.816,0.825,0.571,1.774l-9.562,7.249c-1.245,0.944-1.891,2.934-1.445,4.428l3.481,11.49
		c0.457,1.489-0.231,1.979-1.507,1.09l-9.853-6.859c-1.281-0.89-3.375-0.89-4.654,0l-9.853,6.859
		c-1.282,0.89-1.956,0.399-1.505-1.09l3.471-11.49c0.451-1.494-0.197-3.484-1.437-4.428l-9.568-7.249
		c-1.245-0.95-0.988-1.743,0.576-1.774l12.001-0.244c1.562-0.039,3.258-1.263,3.767-2.739L109.628,120.498z"/>
</g>
<path fill="#FFFFFF" d="M204.89,77.978v128.455c0,44.922-20.687,67.544-62.049,67.863c-22.622,0-40.717-9.21-54.288-27.631
	l26.985-17.935c6.748,9.054,15.745,13.415,26.993,13.088c19.595,0,29.396-14.056,29.396-42.172V77.978H204.89z"/>
<path fill="#FFFFFF" d="M350.041,159.899l-42.655,94.807l-43.625-95.292v111.974h-31.993V77.495h33.316l42.037,108.398
	l40.771-108.398h35.111v193.893h-32.963V159.899z"/>
<text transform="matrix(1 0 0 1 427.25 130.457)"><tspan x="0" y="0" fill="#F1F2F2" font-family="'ChaparralPro-Regular'" font-size="70.2683">Juliano</tspan><tspan x="0" y="68.584" fill="#F1F2F2" font-family="'ChaparralPro-Regular'" font-size="70.2683">Moreira</tspan><tspan x="0" y="137.168" fill="#F1F2F2" font-family="'ChaparralPro-Regular'" font-size="70.2683">DaSilva</tspan></text>
<path fill="none" stroke="#362F2D" stroke-miterlimit="10" d="M765.491,175.896c0,6.579-5.341,11.923-11.915,11.923
	c-6.583,0-11.924-5.344-11.924-11.923c0-6.577,5.341-11.92,11.924-11.92C760.15,163.975,765.491,169.319,765.491,175.896z"/>
</svg>
